<?xml version="1.0" encoding="UTF-8" standalone="no"?>
<!-- Created with Inkscape (http://www.inkscape.org/) -->

<svg
   width="250.00002"
   height="250.00002"
   viewBox="0 0 66.145836 66.145838"
   version="1.1"
   id="svg1"
   xml:space="preserve"
   inkscape:version="1.3.2 (1:1.3.2+202311252150+091e20ef0f)"
   sodipodi:docname="icon.svg"
   inkscape:export-filename="oereb-regular-192x192.png"
   inkscape:export-xdpi="73.727997"
   inkscape:export-ydpi="73.727997"
   xmlns:inkscape="http://www.inkscape.org/namespaces/inkscape"
   xmlns:sodipodi="http://sodipodi.sourceforge.net/DTD/sodipodi-0.dtd"
   xmlns="http://www.w3.org/2000/svg"
   xmlns:svg="http://www.w3.org/2000/svg"><sodipodi:namedview
     id="namedview1"
     pagecolor="#ffffff"
     bordercolor="#000000"
     borderopacity="0.25"
     inkscape:showpageshadow="2"
     inkscape:pageopacity="0.0"
     inkscape:pagecheckerboard="0"
     inkscape:deskcolor="#d1d1d1"
     inkscape:document-units="mm"
     inkscape:zoom="2.0107307"
     inkscape:cx="182.27205"
     inkscape:cy="143.23151"
     inkscape:window-width="1920"
     inkscape:window-height="1011"
     inkscape:window-x="0"
     inkscape:window-y="39"
     inkscape:window-maximized="1"
     inkscape:current-layer="layer2"
     inkscape:export-bgcolor="#ffffff00" /><defs
     id="defs1" /><g
     inkscape:groupmode="layer"
     id="layer2"
     inkscape:label="background"><rect
       style="display:none;fill:#ffffff;fill-opacity:1;stroke-width:3.92692"
       id="rect3"
       width="79.375"
       height="79.375"
       x="-6.6145835"
       y="-6.6145835"
       inkscape:label="maskable" /><rect
       style="display:none;fill:#ffffff;fill-opacity:1;stroke-width:0.264583"
       id="rect2"
       height="66.145836"
       x="-4.4408921e-16"
       y="-4.4408921e-16"
       width="66.145836"
       inkscape:label="small" /><circle
       style="display:inline;fill:#ffffff;fill-opacity:1;stroke-width:4.01183"
       id="path3"
       cx="33.072918"
       cy="33.072918"
       r="26.458334"
       inkscape:label="round" /></g><g
     inkscape:label="logo"
     inkscape:groupmode="layer"
     id="layer1"
     transform="matrix(1.15,0,0,1.15,-4.9609375,-4.9609375)"><path
       id="path1"
       style="fill:#ff0000;fill-opacity:1;stroke-width:0.945473"
       d="M 33.072917,6.6145833 A 26.458334,26.458334 0 0 0 6.6145833,33.072917 26.458334,26.458334 0 0 0 33.072917,59.53125 26.458334,26.458334 0 0 0 59.53125,33.072917 26.458334,26.458334 0 0 0 33.072917,6.6145833 Z m 0,5.2916667 A 21.166666,21.166367 0 0 1 54.239583,33.0724 21.166666,21.166367 0 0 1 33.072917,54.239067 21.166666,21.166367 0 0 1 11.90625,33.0724 21.166666,21.166367 0 0 1 33.072917,11.90625 Z m 0,5.291667 a 15.875,15.875 0 0 0 -15.875,15.875 15.875,15.875 0 0 0 15.875,15.875 15.875,15.875 0 0 0 15.875,-15.875 15.875,15.875 0 0 0 -15.875,-15.875 z"
       inkscape:label="circles" /></g></svg>
